<svg width="21" height="21" viewBox="0 0 21 21" fill="none" xmlns="http://www.w3.org/2000/svg">
<path d="M20.5714 10.4286C20.5714 4.75 15.9643 0.142856 10.2857 0.142856C4.60714 0.142856 0 4.75 0 10.4286C0 14.6473 2.53125 18.2634 6.16071 19.8571C6.13393 19.1339 6.14732 18.2634 6.33482 17.4866C6.33482 17.4866 6.53571 16.6562 7.66071 11.8884C7.32589 11.2321 7.32589 10.2545 7.32589 10.2545C7.32589 8.72768 8.20982 7.58928 9.30804 7.58928C10.2455 7.58928 10.7009 8.29911 10.7009 9.14286C10.7009 10.0804 10.0982 11.4866 9.79018 12.7857C9.53571 13.8839 10.3393 14.7679 11.4107 14.7679C13.3661 14.7679 14.6786 12.2634 14.6786 9.30357C14.6786 7.04018 13.1518 5.35268 10.3929 5.35268C7.27232 5.35268 5.33036 7.68303 5.33036 10.2812C5.33036 11.1786 5.59821 11.808 6.01339 12.3036C6.20089 12.5312 6.22768 12.6116 6.16071 12.8795C6.10714 13.067 6 13.5223 5.94643 13.6964C5.87946 13.9643 5.66518 14.058 5.4375 13.9643C4.00446 13.375 3.33482 11.7946 3.33482 10.0268C3.33482 7.10714 5.79911 3.59821 10.6741 3.59821C14.6116 3.59821 17.1964 6.45089 17.1964 9.49107C17.1964 13.5357 14.9464 16.5491 11.6384 16.5491C10.5268 16.5491 9.48214 15.9464 9.13393 15.2634C8.53125 17.6339 8.41071 18.0893 8.41071 18.0893C8.19643 18.8795 7.75446 19.6696 7.36607 20.2857C8.30357 20.567 9.26786 20.7143 10.2857 20.7143C15.9643 20.7143 20.5714 16.1071 20.5714 10.4286Z" fill="white"/>
</svg>
