<svg width="28" height="32" viewBox="0 0 28 32" fill="none" xmlns="http://www.w3.org/2000/svg">
<path fill-rule="evenodd" clip-rule="evenodd" d="M27.9811 15.7907C27.9811 23.4071 21.7173 29.5814 13.9906 29.5814C6.26378 29.5814 0 23.4071 0 15.7907C0 8.1743 6.26378 2 13.9906 2C21.7173 2 27.9811 8.1743 27.9811 15.7907ZM26.8619 15.7907C26.8619 22.7978 21.0992 28.4781 13.9906 28.4781C6.88193 28.4781 1.11924 22.7978 1.11924 15.7907C1.11924 8.78361 6.88193 3.10326 13.9906 3.10326C21.0992 3.10326 26.8619 8.78361 26.8619 15.7907ZM11.7521 13.0326V13.5842H12.8713V22.4102H11.7521V22.9618H12.8713H15.1098H16.229V22.4102H15.1098V13.0326H12.8713H11.7521ZM15.6694 10.2744C15.6694 11.1884 14.9178 11.9293 13.9906 11.9293C13.0633 11.9293 12.3117 11.1884 12.3117 10.2744C12.3117 9.36045 13.0633 8.61953 13.9906 8.61953C14.9178 8.61953 15.6694 9.36045 15.6694 10.2744Z" fill="white"/>
</svg>
