<svg width="30" height="30" viewBox="0 0 30 30" fill="none" xmlns="http://www.w3.org/2000/svg">
<path fill-rule="evenodd" clip-rule="evenodd" d="M19.6938 3.84954C23.7151 7.8708 24.0167 14.2182 20.6264 18.6789L29.3498 27.4024L27.2827 29.4695L18.5794 20.7662C14.1108 24.3037 7.64568 24.049 3.57 19.9734C-0.824109 15.5792 -0.776799 8.40768 3.67567 3.95521C8.12814 -0.497261 15.2997 -0.544571 19.6938 3.84954ZM18.867 4.6764C22.8104 8.61983 22.7679 15.0559 18.7721 19.0517C14.7763 23.0475 8.34029 23.0899 4.39686 19.1465C0.453432 15.2031 0.495889 8.76704 4.49169 4.77123C8.4875 0.775425 14.9235 0.732968 18.867 4.6764Z" fill="#2B4074"/>
</svg>
